<svg xmlns="http://www.w3.org/2000/svg" viewBox="100 10 650 650" data-viridis="10 9 8 7 6 5 4 3">
  <path fill="#31688e" d="M383.16 361.79C378.04 352.59 373.21 343.66 368.14 334.87C366.32 331.71 366.88 329.99 369.99 328.09C395.11 312.7 420.18 297.22 445.16 281.62C448.7 279.41 450.52 279.79 452.49 283.5C456.78 291.59 461.31 299.55 466.03 307.39C468.2 311 467.91 312.96 464.05 315.24C451.87 322.43 439.91 329.99 427.93 337.53C423.3 340.44 422.43 343.62 424.93 346.94C427.67 350.57 430.84 349.91 434.16 347.87C444.21 341.66 454.3 335.5 464.33 329.24C474.61 322.82 474.6 322.76 480.53 333.57C484.53 340.87 488.39 348.24 492.47 355.49C494.03 358.27 493.55 359.83 490.8 361.52C465.54 377 440.31 392.53 415.2 408.25C411.4 410.63 409.86 409.51 407.98 406.11C399.88 391.38 391.58 376.76 383.16 361.79Z"/>
  <path fill="#1f9e89" d="M454.17 181.92C443.03 177.47 432.23 173.17 421.36 168.85C421.4 165.29 423.66 163.08 425.16 160.64C439.08 137.94 453.24 115.37 467.05 92.6C469.78 88.1 472.55 86.38 477.83 87.91C486.78 90.49 495.81 92.74 504.7 95.53C509.02 96.89 509.93 98.39 507.33 102.44C499.78 114.21 492.58 126.19 485.23 138.09C484.09 139.95 483 141.81 483.31 144.14C483.7 147 485.62 148.6 488.11 149.31C491.16 150.18 493.22 148.29 494.71 145.94C499.32 138.62 503.85 131.24 508.39 123.87C512.23 117.63 516.06 111.39 519.85 105.13C520.88 103.43 521.98 102.03 524.21 102.92C535 107.24 545.69 111.78 555.74 117.13C556.13 119.22 555.11 120.41 554.34 121.66C538.5 147.28 522.55 172.84 506.88 198.57C504.5 202.46 502.54 202.84 498.53 201.04C483.96 194.49 469.21 188.36 454.17 181.92Z"/>
  <path fill="#3e4989" d="M388.06 256.1C399.27 249.14 410.21 242.44 421.03 235.56C423.97 233.69 425.6 234 427.23 237.18C431.94 246.37 436.8 255.48 441.83 264.5C443.44 267.39 442.8 268.85 440.14 270.48C414.6 286.17 389.1 301.93 363.63 317.74C361.09 319.31 359.54 319.14 358.11 316.37C345.31 291.65 333.05 266.72 325.21 239.87C324.14 236.22 324.87 234.09 328.17 232.08C351.75 217.65 375.23 203.06 398.76 188.54C399.87 187.86 401.11 187.39 402.1 186.91C404.04 187.6 404.4 189.17 405 190.5C409.07 199.43 412.94 208.47 417.23 217.3C419.05 221.02 418.71 223.03 414.94 225.25C403.03 232.26 391.34 239.65 379.61 246.96C376.6 248.83 374.22 251.25 376.27 255.15C378.11 258.65 381.06 259.59 384.7 258.01C385.76 257.55 386.74 256.87 388.06 256.1Z"/>
  <path fill="#6ece58" d="M196.44 387.4C210.99 392.75 208.97 390.55 202.09 402.12C196.65 411.27 190.89 420.25 185.31 429.32C182.51 433.87 182.91 437.12 186.41 439.27C189.75 441.32 192.93 440.14 195.76 435.59C202.71 424.42 209.75 413.31 216.4 401.96C218.85 397.79 221.13 396.82 225.52 399.16C233.74 403.55 242.15 407.6 250.61 411.5C254.38 413.24 254.55 415.1 252.51 418.39C236.86 443.56 221.3 468.79 205.78 494.03C204.29 496.45 202.84 497.18 200.13 495.67C175.79 482.2 151.02 469.59 125.11 459.33C124.07 458.92 123.17 458.15 122.32 457.62C122.24 455.38 123.45 453.91 124.41 452.39C138.67 429.89 153.06 407.46 167.15 384.85C169.65 380.84 172.11 380.05 176.51 381.29C183.08 383.15 189.61 385.07 196.44 387.4Z"/>
  <path fill="#3e4989" d="M472.8 438.86C475.38 445.05 478.13 446.01 483.7 442.62C494.66 435.97 505.54 429.17 516.47 422.46C518.01 421.51 519.43 420.28 521.32 420.09C522.62 420.55 522.94 421.69 523.33 422.79C526.9 432.83 530.06 442.99 531.41 453.62C531.65 455.5 531.82 457.12 529.8 458.36C505.16 473.55 480.56 488.79 456.13 503.9C454.65 503.51 454.41 502.42 454.1 501.54C444.95 475.72 432.83 451.27 419.55 427.38C417 422.78 417.77 420.77 422.15 418.12C446.65 403.28 471 388.18 495.27 372.97C499.12 370.56 500.93 371.04 502.72 375.14C506.74 384.28 510.99 393.33 515.38 402.3C517.17 405.98 516.7 408.07 512.95 410.28C501.18 417.2 489.67 424.56 478.06 431.74C475.46 433.35 472.99 435.05 472.8 438.86Z"/>
  <path fill="#35b779" d="M586.29 185.33C594.01 172.84 601.64 160.71 609 148.43C610.94 145.2 612.65 144.44 616.14 146.25C624.42 150.54 632.91 154.41 641.3 158.48C642.92 159.27 644.69 159.89 645.84 161.66C644.22 166.07 641.32 169.76 638.9 173.7C625.24 195.99 611.41 218.18 597.87 240.54C595.53 244.41 593.55 244.83 589.54 242.93C566.68 232.08 543.67 221.54 520.73 210.86C519.11 210.11 517.22 209.71 516.12 207.86C516.36 205.3 518.25 203.49 519.52 201.42C534.48 177 549.59 152.66 564.41 128.16C567.06 123.79 569.28 123 573.84 125.59C581.06 129.7 588.67 133.17 596.26 136.57C599.81 138.16 600.15 139.7 598.12 142.92C590.31 155.31 582.67 167.82 575.08 180.35C571.99 185.47 574.16 190.54 579.28 190.69C582.89 190.8 584.5 188.24 586.29 185.33Z"/>
  <path fill="#6ece58" d="M714.55 195.39C721.63 199.07 728.39 202.57 735.58 206.29C733.06 210.45 730.95 213.99 728.78 217.49C715.05 239.75 701.24 261.95 687.64 284.28C685.53 287.74 683.72 288.22 680.1 286.44C656.92 275.08 633.66 263.89 610.36 252.79C607 251.19 606.27 249.68 608.32 246.39C624.11 221.1 639.81 195.76 655.42 170.36C657.22 167.44 658.84 166.97 661.84 168.56C670.09 172.9 678.43 177.09 686.85 181.1C690.41 182.8 690.41 184.61 688.47 187.66C681.34 198.92 674.41 210.29 667.4 221.63C666.16 223.63 664.89 225.68 665.5 228.15C666.05 230.37 667.35 232.1 669.72 232.63C672.87 233.33 675.27 232.14 676.95 229.46C681.46 222.26 685.95 215.05 690.43 207.83C693.51 202.88 696.7 197.99 699.56 192.92C701.31 189.82 703.13 188.93 706.3 190.97C708.81 192.59 711.58 193.82 714.55 195.39Z"/>
  <path fill="#1f9e89" d="M306.36 540.42C320.37 517.73 334.19 495.34 347.98 472.94C351.46 467.28 351.39 467.32 357.17 470.47C364.91 474.7 372.66 478.92 380.51 482.96C383.62 484.56 384.07 486.12 382.12 489.15C376 498.67 370.15 508.37 364.2 518C363.41 519.28 362.62 520.55 361.88 521.85C359.25 526.47 359.59 529.95 362.82 531.95C366.2 534.05 369.39 532.93 372.25 528.38C377.3 520.35 382.25 512.25 387.25 504.18C388.3 502.48 389.37 500.8 390.42 499.1C396.41 489.48 394 490.27 404.23 494.94C411.19 498.12 418.16 501.28 425.14 504.43C426.49 505.04 427.92 505.47 429.24 507.24C425.15 513.91 421.02 520.69 416.85 527.45C405.74 545.45 394.54 563.38 383.58 581.46C381.42 585.03 379.15 585.58 375.36 584.41C350.27 576.63 326.89 564.99 303.64 553.02C300.64 551.47 300.36 549.73 302.23 547.1C303.68 545.07 304.86 542.86 306.36 540.42Z"/>
  <path fill="#35b779" d="M336.78 459.15C340.18 460.67 340.21 462.45 338.5 465.19C322.83 490.36 307.22 515.55 291.76 540.85C289.62 544.35 287.86 544.8 284.28 542.76C262.57 530.4 240.78 518.18 218.89 506.14C215.19 504.1 214.78 502.42 216.98 498.88C232.68 473.73 248.23 448.5 263.72 423.22C265.44 420.42 267.09 420.09 269.79 421.62C277.47 425.98 285.14 430.35 292.98 434.41C296.57 436.27 296.85 438.09 294.74 441.39C287.86 452.21 281.22 463.18 274.5 474.1C273.8 475.23 273.11 476.38 272.45 477.53C270.6 480.79 271.02 483.86 274.16 485.84C277.45 487.91 280.7 487.09 282.82 483.79C287.32 476.79 291.63 469.66 296.02 462.58C299.27 457.35 302.66 452.19 305.74 446.86C307.45 443.9 309.11 443.4 312.12 445.18C320.15 449.93 328.34 454.39 336.78 459.15Z"/>
  <path fill="#26828e" d="M392.48 117.48C399.09 110.89 405.51 104.61 411.78 98.17C424.11 85.52 439.65 84.13 455.68 84.83C456.85 86.81 455.79 87.86 455.12 88.94C440.38 112.87 425.6 136.78 410.87 160.73C409.42 163.1 408.07 164.43 404.9 163.36C390.19 158.4 375.21 154.8 359.51 155.27C358.57 155.29 357.48 155.45 356.34 153.64C368.2 141.77 380.22 129.74 392.48 117.48Z"/>
  <path fill="#26828e" d="M409.94 590.25C404.52 590.3 399.64 589.76 394.96 588.66C394.35 586.39 395.68 585.12 396.51 583.77C410.73 560.68 424.97 537.6 439.25 514.54C441.6 510.74 443.75 510.41 444.78 513.79C449.78 530.26 453.99 546.91 448.74 564.16C443.72 580.65 430.25 589.68 409.94 590.25Z"/>
  <path fill="#482878" d="M335.88 174.76C349.67 165.98 364.34 166.63 379.16 169.27C385.11 170.33 391.14 171.41 397.89 174.69C372.17 190.57 347.36 205.89 322.51 221.24C315.79 208.77 322.62 185.54 335.88 174.76Z"/>
  <path fill="#482878" d="M463.39 551.71C463.82 538.83 461.07 526.69 458.3 514.08C464.1 514.2 467.87 511.05 471.92 508.55C490.2 497.3 508.45 486 526.72 474.73C528.1 473.88 529.59 473.22 531.01 472.48C533.08 474.62 531.69 476.53 531.38 478.34C530.16 485.41 527.16 491.66 522.08 496.75C503.89 515.04 485.65 533.28 467.33 551.45C466.48 552.29 465.28 555.88 463.39 551.71Z"/>
</svg>